<svg width="18" height="18" viewBox="0 0 18 18" fill="none" xmlns="http://www.w3.org/2000/svg">
<path d="M13.3425 17.055H4.6575C2.6025 17.055 0.9375 15.3825 0.9375 13.3275V7.77C0.9375 6.75 1.5675 5.4675 2.3775 4.8375L6.42 1.6875C7.635 0.742504 9.5775 0.697504 10.8375 1.5825L15.4725 4.83C16.365 5.4525 17.0625 6.7875 17.0625 7.875V13.335C17.0625 15.3825 15.3975 17.055 13.3425 17.055ZM7.11 2.5725L3.0675 5.7225C2.535 6.1425 2.0625 7.095 2.0625 7.77V13.3275C2.0625 14.76 3.225 15.93 4.6575 15.93H13.3425C14.775 15.93 15.9375 14.7675 15.9375 13.335V7.875C15.9375 7.155 15.42 6.1575 14.8275 5.7525L10.1925 2.505C9.3375 1.905 7.9275 1.935 7.11 2.5725Z" fill="#171725"/>
<path d="M5.62508 12.9375C5.48258 12.9375 5.34008 12.885 5.22758 12.7725C5.01008 12.555 5.01008 12.195 5.22758 11.9775L7.62758 9.5775C7.74758 9.4575 7.90508 9.3975 8.07758 9.4125C8.24258 9.4275 8.39258 9.5175 8.49008 9.66L9.30758 10.89L11.9701 8.2275C12.1876 8.01 12.5476 8.01 12.7651 8.2275C12.9826 8.445 12.9826 8.805 12.7651 9.0225L9.61508 12.1725C9.49508 12.2925 9.33758 12.3525 9.16508 12.3375C9.00008 12.3225 8.85008 12.2325 8.75258 12.09L7.93508 10.86L6.02258 12.7725C5.91008 12.885 5.76758 12.9375 5.62508 12.9375Z" fill="#171725"/>
<path d="M12.375 10.6875C12.0675 10.6875 11.8125 10.4325 11.8125 10.125V9.1875H10.875C10.5675 9.1875 10.3125 8.9325 10.3125 8.625C10.3125 8.3175 10.5675 8.0625 10.875 8.0625H12.375C12.6825 8.0625 12.9375 8.3175 12.9375 8.625V10.125C12.9375 10.4325 12.6825 10.6875 12.375 10.6875Z" fill="#171725"/>
</svg>
