<svg width="18" height="18" viewBox="0 0 18 18" fill="none" xmlns="http://www.w3.org/2000/svg">
<path d="M16.5 17.0625H1.5C1.1925 17.0625 0.9375 16.8075 0.9375 16.5C0.9375 16.1925 1.1925 15.9375 1.5 15.9375H16.5C16.8075 15.9375 17.0625 16.1925 17.0625 16.5C17.0625 16.8075 16.8075 17.0625 16.5 17.0625Z" fill="#171725"/>
<path d="M15.6675 17.0625C15.36 17.0625 15.105 16.8075 15.105 16.5V9.75C15.105 8.82 14.235 8.0625 13.17 8.0625H4.83002C3.76502 8.0625 2.89502 8.82 2.89502 9.75V16.5C2.89502 16.8075 2.64002 17.0625 2.33252 17.0625C2.02502 17.0625 1.77002 16.8075 1.77002 16.5V9.75C1.77002 8.1975 3.14252 6.9375 4.83002 6.9375H13.1625C14.85 6.9375 16.2225 8.1975 16.2225 9.75V16.5C16.23 16.8075 15.975 17.0625 15.6675 17.0625Z" fill="#171725"/>
<path d="M13.8299 8.0625C13.5224 8.0625 13.2674 7.8075 13.2674 7.5V5.3775C13.2674 4.7925 12.7049 4.3125 12.0224 4.3125H5.98492C5.29492 4.3125 4.73992 4.7925 4.73992 5.3775V7.5C4.73992 7.8075 4.48492 8.0625 4.17742 8.0625C3.86992 8.0625 3.60742 7.8075 3.60742 7.5V5.3775C3.60742 4.17 4.67242 3.1875 5.97742 3.1875H12.0149C13.3199 3.1875 14.3849 4.17 14.3849 5.3775V7.5C14.3924 7.8075 14.1374 8.0625 13.8299 8.0625Z" fill="#171725"/>
<path d="M12.9975 13.3125C12.1275 13.3125 11.4225 12.6075 11.4225 11.7375V11.505C11.4225 11.2575 11.22 11.055 10.9725 11.055C10.725 11.055 10.5225 11.2575 10.5225 11.505V11.7375C10.5225 12.6075 9.81752 13.3125 8.94753 13.3125C8.07752 13.3125 7.37252 12.6075 7.37252 11.7375V11.505C7.37252 11.2575 7.17002 11.055 6.92252 11.055C6.67502 11.055 6.47252 11.2575 6.47252 11.505V11.7375C6.47252 12.6075 5.76752 13.3125 4.89752 13.3125C4.02752 13.3125 3.32252 12.6075 3.32252 11.7375V11.49C3.32252 11.25 3.12752 11.0475 2.88002 11.04H2.60252C2.29502 11.0325 2.04002 10.7775 2.04752 10.47C2.05502 10.1625 2.30252 9.91501 2.61002 9.91501H2.61752H2.89502C3.75002 9.93001 4.44752 10.635 4.44752 11.49V11.7375C4.44752 11.985 4.65002 12.1875 4.89752 12.1875C5.14502 12.1875 5.34752 11.985 5.34752 11.7375V11.505C5.34752 10.635 6.05252 9.93001 6.92252 9.93001C7.79252 9.93001 8.49752 10.635 8.49752 11.505V11.7375C8.49752 11.985 8.70002 12.1875 8.94753 12.1875C9.19502 12.1875 9.39752 11.985 9.39752 11.7375V11.505C9.39752 10.635 10.1025 9.93001 10.9725 9.93001C11.8425 9.93001 12.5475 10.635 12.5475 11.505V11.7375C12.5475 11.985 12.75 12.1875 12.9975 12.1875C13.245 12.1875 13.4475 11.985 13.4475 11.7375V11.505C13.4475 10.635 14.1525 9.93001 15.0225 9.93001H15.36C15.6675 9.93001 15.9225 10.185 15.9225 10.4925C15.9225 10.8 15.6675 11.055 15.36 11.055H15.0225C14.775 11.055 14.5725 11.2575 14.5725 11.505V11.7375C14.5725 12.6075 13.8675 13.3125 12.9975 13.3125Z" fill="#171725"/>
<path d="M6 4.3125C5.6925 4.3125 5.4375 4.0575 5.4375 3.75V2.25C5.4375 1.9425 5.6925 1.6875 6 1.6875C6.3075 1.6875 6.5625 1.9425 6.5625 2.25V3.75C6.5625 4.0575 6.3075 4.3125 6 4.3125Z" fill="#171725"/>
<path d="M12 4.3125C11.6925 4.3125 11.4375 4.0575 11.4375 3.75V2.25C11.4375 1.9425 11.6925 1.6875 12 1.6875C12.3075 1.6875 12.5625 1.9425 12.5625 2.25V3.75C12.5625 4.0575 12.3075 4.3125 12 4.3125Z" fill="#171725"/>
<path d="M9 4.3125C8.6925 4.3125 8.4375 4.0575 8.4375 3.75V1.5C8.4375 1.1925 8.6925 0.9375 9 0.9375C9.3075 0.9375 9.5625 1.1925 9.5625 1.5V3.75C9.5625 4.0575 9.3075 4.3125 9 4.3125Z" fill="#171725"/>
</svg>
