<svg width="50" height="50" viewBox="0 0 50 50" fill="none" xmlns="http://www.w3.org/2000/svg">
<rect width="50" height="50" rx="25" fill="#F6F6F6"/>
<path d="M31.2915 25.5728C30.854 25.9999 30.604 26.6145 30.6665 27.2707C30.7603 28.3957 31.7915 29.2186 32.9165 29.2186H34.8957V30.4582C34.8957 32.6145 33.1353 34.3749 30.979 34.3749H19.0207C16.8644 34.3749 15.104 32.6145 15.104 30.4582V23.4478C15.104 21.2916 16.8644 19.5311 19.0207 19.5311H30.979C33.1353 19.5311 34.8957 21.2916 34.8957 23.4478V24.9478H32.7915C32.2082 24.9478 31.6769 25.1769 31.2915 25.5728Z" stroke="#171725" stroke-width="1.5625" stroke-linecap="round" stroke-linejoin="round"/>
<path d="M15.104 24.3854V19.625C15.104 18.3854 15.8644 17.2812 17.0207 16.8437L25.2915 13.7187C26.5832 13.2291 27.9686 14.1875 27.9686 15.5729V19.5312" stroke="#171725" stroke-width="1.5625" stroke-linecap="round" stroke-linejoin="round"/>
<path d="M35.9986 26.0106V28.1565C35.9986 28.7294 35.5403 29.1981 34.9569 29.2189H32.9153C31.7903 29.2189 30.759 28.396 30.6653 27.271C30.6028 26.6148 30.8528 26.0002 31.2903 25.5731C31.6757 25.1773 32.2069 24.9481 32.7903 24.9481H34.9569C35.5403 24.969 35.9986 25.4377 35.9986 26.0106Z" stroke="#171725" stroke-width="1.5625" stroke-linecap="round" stroke-linejoin="round"/>
<path d="M19.7915 23.9584H27.0832" stroke="#171725" stroke-width="1.5625" stroke-linecap="round" stroke-linejoin="round"/>
</svg>
