<svg width="25" height="25" viewBox="0 0 25 25" fill="none" xmlns="http://www.w3.org/2000/svg">
<path d="M12.895 2.5C18.575 2.5 22.875 7.15699 22.875 12.485C22.875 18.6642 17.835 22.5 12.875 22.5C11.235 22.5 9.415 22.0593 7.955 21.198C7.445 20.8876 7.015 20.6572 6.465 20.8375L4.445 21.4384C3.935 21.5986 3.475 21.198 3.625 20.6572L4.295 18.4139C4.405 18.1034 4.385 17.7729 4.225 17.5125C3.365 15.9301 2.875 14.1975 2.875 12.515C2.875 7.24712 7.085 2.5 12.895 2.5ZM17.465 11.2431C16.755 11.2431 16.185 11.814 16.185 12.525C16.185 13.2261 16.755 13.807 17.465 13.807C18.175 13.807 18.745 13.2261 18.745 12.525C18.745 11.814 18.175 11.2431 17.465 11.2431ZM12.855 11.2431C12.155 11.2331 11.575 11.814 11.575 12.515C11.575 13.2261 12.145 13.7969 12.855 13.807C13.565 13.807 14.135 13.2261 14.135 12.525C14.135 11.814 13.565 11.2431 12.855 11.2431ZM8.245 11.2431C7.535 11.2431 6.965 11.814 6.965 12.525C6.965 13.2261 7.545 13.807 8.245 13.807C8.955 13.7969 9.525 13.2261 9.525 12.525C9.525 11.814 8.955 11.2431 8.245 11.2431Z" fill="#2853AF"/>
</svg>
