<svg width="25" height="25" viewBox="0 0 25 25" fill="none" xmlns="http://www.w3.org/2000/svg">
<path fill-rule="evenodd" clip-rule="evenodd" d="M19.9464 19.5699C16.8902 22.6263 12.3648 23.2867 8.66142 21.574C8.11471 21.3539 7.66648 21.176 7.24037 21.176C6.05349 21.183 4.57617 22.3339 3.80836 21.567C3.04055 20.7991 4.19226 19.3206 4.19226 18.1266C4.19226 17.7004 4.02142 17.2602 3.80132 16.7124C2.08783 13.0096 2.74911 8.48269 5.80526 5.42721C9.7066 1.52443 16.045 1.52443 19.9464 5.4262C23.8547 9.33501 23.8477 15.6681 19.9464 19.5699Z" stroke="#78828A" stroke-width="1.5" stroke-linecap="round" stroke-linejoin="round"/>
<path d="M16.8144 12.913H16.8234" stroke="#78828A" stroke-width="2" stroke-linecap="round" stroke-linejoin="round"/>
<path d="M12.8054 12.913H12.8144" stroke="#78828A" stroke-width="2" stroke-linecap="round" stroke-linejoin="round"/>
<path d="M8.7964 12.913H8.8054" stroke="#78828A" stroke-width="2" stroke-linecap="round" stroke-linejoin="round"/>
</svg>
