<svg width="19" height="21" viewBox="0 0 19 21" fill="none" xmlns="http://www.w3.org/2000/svg">
<path d="M13.316 0.5C16.405 0.5 18.125 2.28 18.125 5.33V15.66C18.125 18.76 16.405 20.5 13.316 20.5H4.935C1.895 20.5 0.125 18.76 0.125 15.66V5.33C0.125 2.28 1.895 0.5 4.935 0.5H13.316ZM5.205 14.24C4.905 14.21 4.615 14.35 4.455 14.61C4.295 14.86 4.295 15.19 4.455 15.45C4.615 15.7 4.905 15.85 5.205 15.81H13.045C13.444 15.77 13.745 15.429 13.745 15.03C13.745 14.62 13.444 14.28 13.045 14.24H5.205ZM13.045 9.679H5.205C4.774 9.679 4.425 10.03 4.425 10.46C4.425 10.89 4.774 11.24 5.205 11.24H13.045C13.475 11.24 13.825 10.89 13.825 10.46C13.825 10.03 13.475 9.679 13.045 9.679ZM8.194 5.15H5.205V5.16C4.774 5.16 4.425 5.51 4.425 5.94C4.425 6.37 4.774 6.72 5.205 6.72H8.194C8.625 6.72 8.975 6.37 8.975 5.929C8.975 5.5 8.625 5.15 8.194 5.15Z" fill="#2853AF"/>
</svg>
