<svg width="25" height="25" viewBox="0 0 25 25" fill="none" xmlns="http://www.w3.org/2000/svg">
<path fill-rule="evenodd" clip-rule="evenodd" d="M16.0337 2.5C19.1777 2.5 21.2897 4.653 21.2897 7.857V17.053C21.2897 20.285 19.2427 22.387 16.0747 22.407L8.3817 22.41C5.2377 22.41 3.1247 20.257 3.1247 17.053V7.857C3.1247 4.624 5.1717 2.523 8.3397 2.504L16.0327 2.5H16.0337ZM16.0337 4L8.3447 4.004C6.0167 4.018 4.6247 5.458 4.6247 7.857V17.053C4.6247 19.468 6.0297 20.91 8.3807 20.91L16.0697 20.907C18.3977 20.893 19.7897 19.451 19.7897 17.053V7.857C19.7897 5.442 18.3857 4 16.0337 4ZM15.8408 15.9737C16.2548 15.9737 16.5908 16.3097 16.5908 16.7237C16.5908 17.1377 16.2548 17.4737 15.8408 17.4737H8.6208C8.2068 17.4737 7.8708 17.1377 7.8708 16.7237C7.8708 16.3097 8.2068 15.9737 8.6208 15.9737H15.8408ZM15.8408 11.7872C16.2548 11.7872 16.5908 12.1232 16.5908 12.5372C16.5908 12.9512 16.2548 13.2872 15.8408 13.2872H8.6208C8.2068 13.2872 7.8708 12.9512 7.8708 12.5372C7.8708 12.1232 8.2068 11.7872 8.6208 11.7872H15.8408ZM11.3755 7.6104C11.7895 7.6104 12.1255 7.9464 12.1255 8.3604C12.1255 8.7744 11.7895 9.1104 11.3755 9.1104H8.6205C8.2065 9.1104 7.8705 8.7744 7.8705 8.3604C7.8705 7.9464 8.2065 7.6104 8.6205 7.6104H11.3755Z" fill="#78828A"/>
</svg>
