<svg width="18" height="18" viewBox="0 0 18 18" fill="none" xmlns="http://www.w3.org/2000/svg">
<path d="M16.5 17.0625H1.5C1.1925 17.0625 0.9375 16.8075 0.9375 16.5C0.9375 16.1925 1.1925 15.9375 1.5 15.9375H16.5C16.8075 15.9375 17.0625 16.1925 17.0625 16.5C17.0625 16.8075 16.8075 17.0625 16.5 17.0625Z" fill="#171725"/>
<path d="M15.75 17.0625H2.25C1.9425 17.0625 1.6875 16.8075 1.6875 16.5V4.5C1.6875 2.235 2.985 0.9375 5.25 0.9375H12.75C15.015 0.9375 16.3125 2.235 16.3125 4.5V16.5C16.3125 16.8075 16.0575 17.0625 15.75 17.0625ZM2.8125 15.9375H15.1875V4.5C15.1875 2.835 14.415 2.0625 12.75 2.0625H5.25C3.585 2.0625 2.8125 2.835 2.8125 4.5V15.9375Z" fill="#171725"/>
<path d="M11.25 17.0625H6.75C6.4425 17.0625 6.1875 16.8075 6.1875 16.5V11.955C6.1875 11.2575 6.7575 10.6875 7.455 10.6875H10.5525C11.25 10.6875 11.82 11.2575 11.82 11.955V16.5C11.8125 16.8075 11.5575 17.0625 11.25 17.0625ZM7.3125 15.9375H10.6875V11.955C10.6875 11.88 10.6275 11.8125 10.545 11.8125H7.44749C7.37249 11.8125 7.305 11.8725 7.305 11.955V15.9375H7.3125Z" fill="#171725"/>
<path d="M9 8.8125C8.6925 8.8125 8.4375 8.5575 8.4375 8.25V4.5C8.4375 4.1925 8.6925 3.9375 9 3.9375C9.3075 3.9375 9.5625 4.1925 9.5625 4.5V8.25C9.5625 8.5575 9.3075 8.8125 9 8.8125Z" fill="#171725"/>
<path d="M10.875 6.9375H7.125C6.8175 6.9375 6.5625 6.6825 6.5625 6.375C6.5625 6.0675 6.8175 5.8125 7.125 5.8125H10.875C11.1825 5.8125 11.4375 6.0675 11.4375 6.375C11.4375 6.6825 11.1825 6.9375 10.875 6.9375Z" fill="#171725"/>
</svg>
