<svg width="24" height="24" viewBox="0 0 24 24" fill="none" xmlns="http://www.w3.org/2000/svg">
<path d="M20.2332 16.9772C21.1817 15.4318 21.6826 13.6534 21.6801 11.8401L21.6801 11.84L21.6801 11.8398C21.6826 10.0265 21.1817 8.24813 20.2331 6.70274L20.2277 6.6943C19.3477 5.25996 18.1145 4.07526 16.6461 3.25341C15.1776 2.43156 13.523 2.00001 11.8402 2C10.1574 1.99999 8.50272 2.43153 7.03426 3.25337C5.56581 4.07521 4.33264 5.2599 3.4526 6.69423L3.44713 6.70278C2.50091 8.24923 2.00019 10.027 2.00018 11.8399C2.00018 13.6529 2.50089 15.4307 3.44709 16.9771L3.45265 16.9858C4.3327 18.4201 5.56586 19.6048 7.0343 20.4266C8.50275 21.2484 10.1574 21.6799 11.8402 21.6799C13.523 21.6799 15.1776 21.2484 16.6461 20.4265C18.1145 19.6047 19.3476 18.42 20.2277 16.9857L20.2332 16.9772ZM13.0979 19.9935C12.9104 20.1744 12.6946 20.3235 12.459 20.4348C12.2656 20.5266 12.0542 20.5743 11.8401 20.5743C11.6261 20.5743 11.4147 20.5266 11.2213 20.4348C10.773 20.2058 10.3892 19.868 10.105 19.4525C9.52473 18.6139 9.09468 17.6808 8.8341 16.6949C9.8351 16.6333 10.8371 16.6019 11.8402 16.6008C12.8428 16.6008 13.8448 16.6322 14.8464 16.6949C14.7021 17.2018 14.522 17.6978 14.3073 18.1792C14.0245 18.8561 13.6139 19.4721 13.0979 19.9935V19.9935ZM3.12504 12.3928H7.09397C7.11981 13.5003 7.23985 14.6035 7.45279 15.6906C6.36784 15.7861 5.28566 15.9172 4.20625 16.084C3.57417 14.95 3.20469 13.6886 3.12504 12.3928ZM4.20625 7.59591C5.28523 7.76311 6.36779 7.89427 7.45393 7.98938C7.24057 9.07642 7.12026 10.1797 7.09432 11.2872H3.12504C3.20468 9.99134 3.57416 8.72992 4.20624 7.59591H4.20625ZM10.5824 3.68643C10.7699 3.5055 10.9857 3.35644 11.2213 3.24515C11.4147 3.15327 11.6261 3.1056 11.8401 3.1056C12.0542 3.1056 12.2656 3.15327 12.459 3.24515C12.9073 3.47415 13.2911 3.81188 13.5753 4.22745C14.1556 5.066 14.5856 5.99909 14.8462 6.985C13.8452 7.04659 12.8432 7.07797 11.8402 7.07913C10.8375 7.07912 9.83546 7.04774 8.83392 6.98498C8.97816 6.47807 9.15832 5.98208 9.37303 5.50077C9.65576 4.82387 10.0664 4.20784 10.5824 3.68643ZM20.5553 11.2872H16.5863C16.5605 10.1797 16.4404 9.07641 16.2275 7.98928C17.3125 7.89381 18.3947 7.76268 19.4741 7.5959C20.1061 8.72991 20.4756 9.99134 20.5553 11.2872ZM8.56478 15.6047C8.34857 14.5469 8.22645 13.4721 8.19987 12.3928H15.4805C15.4542 13.4721 15.3323 14.5469 15.1163 15.6047C14.0254 15.5331 12.9334 15.4966 11.8402 15.4952C10.7477 15.4952 9.65591 15.5317 8.56478 15.6047ZM15.1155 8.07523C15.3317 9.13301 15.4538 10.2078 15.4804 11.2872H8.19975C8.22609 10.2078 8.34798 9.13299 8.56399 8.07519C9.65485 8.14676 10.7469 8.18327 11.8402 8.18474C12.9326 8.18474 14.0244 8.14824 15.1155 8.07524V8.07523ZM16.586 12.3928H20.5553C20.4756 13.6886 20.1061 14.95 19.474 16.084C18.3951 15.9168 17.3125 15.7856 16.2264 15.6906C16.4397 14.6035 16.56 13.5003 16.586 12.3928ZM18.8111 6.5783C17.8678 6.71441 16.9216 6.82217 15.9725 6.90158C15.8019 6.26654 15.582 5.64581 15.3146 5.04508C15.0705 4.49226 14.7633 3.9695 14.3992 3.4872C16.1588 4.02686 17.703 5.10872 18.8111 6.5783ZM5.664 5.66382C6.67341 4.65345 7.91525 3.90612 9.28066 3.48733C9.25995 3.51416 9.23864 3.5398 9.21822 3.56719C8.5164 4.57749 8.00519 5.70759 7.7098 6.90175C6.76071 6.82137 5.81383 6.71355 4.86916 6.5783C5.1128 6.25559 5.37837 5.95004 5.664 5.66382ZM4.86915 17.1016C5.81253 16.9655 6.75873 16.8577 7.70777 16.7783C7.87834 17.4134 8.09832 18.0341 8.36571 18.6349C8.60984 19.1877 8.91701 19.7104 9.28112 20.1927C7.52146 19.6531 5.9773 18.5712 4.86915 17.1016V17.1016ZM18.0163 18.0161C17.0069 19.0265 15.765 19.7738 14.3996 20.1926C14.4203 20.1658 14.4416 20.1401 14.4621 20.1127C15.1639 19.1024 15.6751 17.9723 15.9705 16.7782C16.9196 16.8586 17.8665 16.9664 18.8111 17.1016C18.5675 17.4243 18.3019 17.7299 18.0163 18.0161V18.0161Z" fill="#171725"/>
</svg>
