<svg width="22" height="22" viewBox="0 0 22 22" fill="none" xmlns="http://www.w3.org/2000/svg">
<g clip-path="url(#clip0_32179_1526)">
<path d="M11 0.5C8.91227 0.502778 6.91085 1.33336 5.4346 2.8096C3.95836 4.28585 3.12778 6.28727 3.125 8.375C3.125 14.0286 10.4619 21.1095 10.7736 21.4081C10.8342 21.4671 10.9154 21.5 11 21.5C11.0846 21.5 11.1658 21.4671 11.2264 21.4081C11.5381 21.1095 18.875 14.0286 18.875 8.375C18.8722 6.28727 18.0416 4.28585 16.5654 2.8096C15.0892 1.33336 13.0877 0.502778 11 0.5ZM11 11.9844C10.2861 11.9844 9.5883 11.7727 8.99474 11.3761C8.40118 10.9795 7.93856 10.4158 7.66537 9.75625C7.39219 9.09672 7.32071 8.371 7.45998 7.67085C7.59925 6.9707 7.94301 6.32757 8.44779 5.82279C8.95257 5.31801 9.5957 4.97425 10.2958 4.83498C10.996 4.69571 11.7217 4.76719 12.3812 5.04037C13.0408 5.31356 13.6045 5.77618 14.0011 6.36974C14.3977 6.9633 14.6094 7.66113 14.6094 8.375C14.6088 9.33208 14.2283 10.2498 13.5515 10.9265C12.8748 11.6033 11.9571 11.9838 11 11.9844Z" fill="#2853AF"/>
</g>
<defs>
<clipPath id="clip0_32179_1526">
<rect width="21" height="21" fill="white" transform="translate(0.5 0.5)"/>
</clipPath>
</defs>
</svg>
