<svg width="18" height="18" viewBox="0 0 18 18" fill="none" xmlns="http://www.w3.org/2000/svg">
<path d="M17.25 17.0625H0.75C0.4425 17.0625 0.1875 16.8075 0.1875 16.5C0.1875 16.1925 0.4425 15.9375 0.75 15.9375H17.25C17.5575 15.9375 17.8125 16.1925 17.8125 16.5C17.8125 16.8075 17.5575 17.0625 17.25 17.0625Z" fill="#171725"/>
<path d="M14.8352 17.0701C14.5277 17.0701 14.2727 16.8151 14.2727 16.5076V13.1625C14.2727 12.855 14.5277 12.6 14.8352 12.6C15.1427 12.6 15.3977 12.855 15.3977 13.1625V16.5076C15.3977 16.8151 15.1502 17.0701 14.8352 17.0701Z" fill="#171725"/>
<path d="M14.8502 13.725C13.6277 13.725 12.6377 12.735 12.6377 11.5125V9.81001C12.6377 8.58751 13.6277 7.5975 14.8502 7.5975C16.0727 7.5975 17.0627 8.58751 17.0627 9.81001V11.5125C17.0627 12.735 16.0727 13.725 14.8502 13.725ZM14.8502 8.73001C14.2502 8.73001 13.7627 9.21752 13.7627 9.81752V11.52C13.7627 12.12 14.2502 12.6075 14.8502 12.6075C15.4502 12.6075 15.9377 12.12 15.9377 11.52V9.81752C15.9377 9.21752 15.4502 8.73001 14.8502 8.73001Z" fill="#171725"/>
<path d="M10.7249 17.0625C10.4174 17.0625 10.1624 16.8075 10.1624 16.5V4.52252C10.1624 3.33002 9.65987 2.82001 8.48987 2.82001H3.81738C2.63988 2.82001 2.12988 3.33002 2.12988 4.52252V16.5C2.12988 16.8075 1.87488 17.0625 1.56738 17.0625C1.25988 17.0625 1.00488 16.8075 1.00488 16.5V4.52252C1.00488 2.70002 2.00238 1.69501 3.81738 1.69501H8.48987C10.2974 1.69501 11.2874 2.70002 11.2874 4.52252V16.5C11.2874 16.8075 11.0324 17.0625 10.7249 17.0625Z" fill="#171725"/>
<path d="M8.06236 6.75H4.34985C4.04235 6.75 3.78735 6.495 3.78735 6.1875C3.78735 5.88 4.04235 5.625 4.34985 5.625H8.06236C8.36986 5.625 8.62486 5.88 8.62486 6.1875C8.62486 6.495 8.36986 6.75 8.06236 6.75Z" fill="#171725"/>
<path d="M8.06236 9.5625H4.34985C4.04235 9.5625 3.78735 9.3075 3.78735 9C3.78735 8.6925 4.04235 8.4375 4.34985 8.4375H8.06236C8.36986 8.4375 8.62486 8.6925 8.62486 9C8.62486 9.3075 8.36986 9.5625 8.06236 9.5625Z" fill="#171725"/>
<path d="M6.1875 17.0625C5.88 17.0625 5.625 16.8075 5.625 16.5V13.6875C5.625 13.38 5.88 13.125 6.1875 13.125C6.495 13.125 6.75 13.38 6.75 13.6875V16.5C6.75 16.8075 6.495 17.0625 6.1875 17.0625Z" fill="#171725"/>
</svg>
