<svg width="24" height="18" viewBox="0 0 24 18" fill="none" xmlns="http://www.w3.org/2000/svg">
<path fill-rule="evenodd" clip-rule="evenodd" d="M16.7464 12.7937C16.8389 14.8876 15.1491 16.6581 12.9724 16.7471C12.812 16.7539 4.99607 16.7381 4.99607 16.7381C2.82996 16.9025 0.934176 15.346 0.76332 13.26C0.750451 13.1046 0.753959 4.71821 0.753959 4.71821C0.657994 2.62217 2.34548 0.84713 4.52329 0.754776C4.68595 0.74689 12.4915 0.76153 12.4915 0.76153C14.668 0.599348 16.5697 2.16715 16.7382 4.26319C16.75 4.41411 16.7464 12.7937 16.7464 12.7937Z" stroke="#171725" stroke-width="1.5" stroke-linecap="round" stroke-linejoin="round"/>
<path d="M16.75 6.44129L20.5134 3.36129C21.446 2.59787 22.8448 3.26301 22.8437 4.46643L22.83 12.8652C22.8288 14.0687 21.4288 14.7281 20.4986 13.9647L16.75 10.8847" stroke="#171725" stroke-width="1.5" stroke-linecap="round" stroke-linejoin="round"/>
</svg>
