<svg width="18" height="18" viewBox="0 0 18 18" fill="none" xmlns="http://www.w3.org/2000/svg">
<path d="M14.3174 9.44252C14.1974 9.44252 14.0775 9.40501 13.9725 9.32251C10.95 6.99001 7.04245 6.99001 4.01995 9.32251C3.77245 9.51001 3.41995 9.46501 3.23245 9.22501C3.04495 8.97751 3.08995 8.62502 3.32995 8.43752C6.77245 5.77502 11.2199 5.77502 14.6549 8.43752C14.9024 8.62502 14.9474 8.97751 14.7524 9.22501C14.6549 9.36751 14.4899 9.44252 14.3174 9.44252Z" fill="#171725"/>
<path d="M16.4999 6.83252C16.3799 6.83252 16.2599 6.79504 16.1549 6.71254C11.8049 3.35254 6.18741 3.35254 1.84491 6.71254C1.59741 6.90004 1.2449 6.85503 1.0574 6.61503C0.869903 6.36753 0.914896 6.01502 1.1549 5.82752C5.9174 2.14502 12.0749 2.14502 16.8449 5.82752C17.0924 6.01502 17.1374 6.36753 16.9424 6.61503C16.8374 6.75753 16.6649 6.83252 16.4999 6.83252Z" fill="#171725"/>
<path d="M12.9077 12.18C12.7877 12.18 12.6677 12.1425 12.5627 12.06C10.4027 10.3875 7.60518 10.3875 5.43767 12.06C5.19017 12.2475 4.83767 12.2025 4.65017 11.9625C4.46267 11.715 4.50768 11.3625 4.74768 11.175C7.32768 9.18002 10.6652 9.18002 13.2452 11.175C13.4927 11.3625 13.5377 11.715 13.3427 11.9625C13.2377 12.105 13.0727 12.18 12.9077 12.18Z" fill="#171725"/>
<path d="M10.9501 14.925C10.8301 14.925 10.7101 14.8875 10.6051 14.805C9.63013 14.0475 8.36263 14.0475 7.38763 14.805C7.14013 14.9925 6.78763 14.9475 6.60013 14.7075C6.41263 14.46 6.45762 14.1075 6.69762 13.92C8.09262 12.84 9.89263 12.84 11.2876 13.92C11.5351 14.1075 11.5801 14.46 11.3851 14.7075C11.2876 14.8425 11.1226 14.925 10.9501 14.925Z" fill="#171725"/>
</svg>
